<!-- <svg id="openai-horizontal" xmlns="http://www.w3.org/2000/svg" viewBox="0 0 120 29.53"><path d="M40.7,6.98s-.05,0-.07,0c-.02,0-.05,0-.07,0-4.67,0-7.58,2.91-7.58,7.6v2.53c0,4.69,2.9,7.6,7.58,7.6,.02,0,.05,0,.07,0,.02,0,.05,0,.07,0,4.67,0,7.58-2.91,7.58-7.6v-2.53c0-4.69-2.91-7.6-7.58-7.6Zm4.31,10.31c0,3.08-1.6,4.86-4.38,4.89-2.78-.03-4.38-1.81-4.38-4.89v-2.88c0-3.08,1.6-4.86,4.38-4.89,2.78,.03,4.38,1.81,4.38,4.89v2.88Zm40.57-5.79s-.06,0-.09,0c-.02,0-.03,0-.05,0-1.77,0-3.03,.6-3.65,1.75l-.19,.35v-1.8h-3.02v12.56h3.17v-7.48c0-1.76,.95-2.77,2.59-2.8,1.57,.03,2.47,1.02,2.47,2.73v7.55h3.17v-8.09c0-2.99-1.64-4.77-4.39-4.77Zm34.42-1.77v-2.4h-10.46v2.4h3.67v12.22h-3.67v2.4h10.46v-2.4h-3.67V9.73h3.67Zm-18.75-2.4h0s-3.28,0-3.28,0l-6.1,17.04h3.43l1.17-3.65h6.66v.04s1.17,3.62,1.17,3.62h3.43l-6.11-17.04h-.36Zm-4.03,10.98l2.57-8.05,2.55,8.05h-5.12Zm-39.45-6.81s-.05,0-.07,0c-.03,0-.05,0-.07,0-1.59,0-2.96,.66-3.68,1.76l-.18,.28v-1.74h-3.02V28.69h3.17v-5.9l.18,.27c.68,1.01,2.01,1.61,3.56,1.61,.03,0,.05,0,.08,0,.02,0,.04,0,.07,0,2.61,0,5.24-1.7,5.24-5.51v-2.14c0-2.74-1.62-5.51-5.26-5.51Zm2.1,7.5c0,2-1.15,3.24-3.01,3.28-1.73-.03-2.94-1.35-2.94-3.23v-1.89c0-1.9,1.22-3.24,2.97-3.28,1.84,.03,2.98,1.28,2.98,3.28v1.84Zm11.05-7.5h0c-.06,0-.12,.01-.18,.01-.06,0-.12-.01-.18-.01h0c-3.57,0-5.78,2.23-5.78,5.81v1.76c0,3.45,2.24,5.59,5.83,5.59,.08,0,.15,0,.22-.01,.05,0,.09,.01,.14,.01,2.41,0,4.09-.88,5.16-2.7l-2.13-1.23c-.71,1.05-1.66,1.84-3.02,1.84-1.82,0-2.91-1.12-2.91-3.01v-.5h8.44v-2.08c0-3.34-2.19-5.49-5.59-5.49Zm-2.86,5.54v-.3c0-2,.95-3.12,2.68-3.2,1.66,.08,2.66,1.18,2.66,2.99v.5s-5.34,0-5.34,0Z"></path><path d="M27.21,12.08c.67-2.01,.44-4.21-.63-6.04-1.61-2.8-4.85-4.24-8.01-3.57C17.16,.89,15.14-.01,13.02,0c-3.23,0-6.1,2.08-7.1,5.15-2.08,.43-3.87,1.73-4.92,3.57-1.62,2.8-1.25,6.32,.92,8.72-.67,2.01-.44,4.21,.63,6.03,1.61,2.81,4.85,4.25,8.02,3.58,1.4,1.58,3.42,2.49,5.54,2.48,3.23,0,6.1-2.08,7.1-5.15,2.08-.43,3.87-1.73,4.91-3.57,1.63-2.8,1.26-6.32-.91-8.72Zm-2.3-5.07c.64,1.12,.88,2.43,.66,3.7-.04-.03-.12-.07-.17-.1l-5.88-3.4c-.3-.17-.67-.17-.97,0l-6.89,3.98v-2.92l5.69-3.29c2.65-1.53,6.03-.62,7.56,2.03Zm-13.25,6.07l2.9-1.68,2.9,1.68v3.35l-2.9,1.68-2.9-1.68v-3.35ZM13.01,1.93c1.3,0,2.55,.45,3.55,1.28-.04,.02-.12,.07-.18,.1l-5.88,3.39c-.3,.17-.48,.49-.48,.84v7.96l-2.53-1.46V7.46c0-3.06,2.47-5.53,5.53-5.54ZM2.68,9.69h0c.65-1.12,1.66-1.98,2.88-2.43v6.99c0,.35,.18,.66,.48,.84l6.88,3.97-2.54,1.47-5.68-3.28c-2.64-1.53-3.55-4.91-2.02-7.56Zm1.55,12.83h0c-.65-1.11-.88-2.43-.66-3.7,.04,.03,.12,.07,.17,.1l5.88,3.4c.3,.17,.67,.17,.97,0l6.88-3.98v2.92l-5.69,3.28c-2.65,1.52-6.03,.62-7.56-2.02Zm11.89,5.08c-1.29,0-2.55-.45-3.54-1.28,.04-.02,.13-.07,.18-.1l5.88-3.39c.3-.17,.49-.49,.48-.84v-7.95l2.53,1.46v6.57c0,3.06-2.48,5.54-5.53,5.54Zm10.34-7.76c-.65,1.12-1.67,1.98-2.88,2.42v-6.99c0-.35-.18-.67-.48-.84h0l-6.89-3.98,2.53-1.46,5.69,3.28c2.65,1.53,3.55,4.91,2.02,7.56Z"></path></svg> -->
<svg xmlns="http://www.w3.org/2000/svg" width="30" height="30.47" viewBox="0 0 256 260"><path d="M239.184 106.203a64.716 64.716 0 0 0-5.576-53.103C219.452 28.459 191 15.784 163.213 21.74A65.586 65.586 0 0 0 52.096 45.22a64.716 64.716 0 0 0-43.23 31.36c-14.31 24.602-11.061 55.634 8.033 76.74a64.665 64.665 0 0 0 5.525 53.102c14.174 24.65 42.644 37.324 70.446 31.36a64.72 64.72 0 0 0 48.754 21.744c28.481.025 53.714-18.361 62.414-45.481a64.767 64.767 0 0 0 43.229-31.36c14.137-24.558 10.875-55.423-8.083-76.483Zm-97.56 136.338a48.397 48.397 0 0 1-31.105-11.255l1.535-.87l51.67-29.825a8.595 8.595 0 0 0 4.247-7.367v-72.85l21.845 12.636c.218.111.37.32.409.563v60.367c-.056 26.818-21.783 48.545-48.601 48.601Zm-104.466-44.61a48.345 48.345 0 0 1-5.781-32.589l1.534.921l51.722 29.826a8.339 8.339 0 0 0 8.441 0l63.181-36.425v25.221a.87.87 0 0 1-.358.665l-52.335 30.184c-23.257 13.398-52.97 5.431-66.404-17.803ZM23.549 85.38a48.499 48.499 0 0 1 25.58-21.333v61.39a8.288 8.288 0 0 0 4.195 7.316l62.874 36.272l-21.845 12.636a.819.819 0 0 1-.767 0L41.353 151.53c-23.211-13.454-31.171-43.144-17.804-66.405v.256Zm179.466 41.695l-63.08-36.63L161.73 77.86a.819.819 0 0 1 .768 0l52.233 30.184a48.6 48.6 0 0 1-7.316 87.635v-61.391a8.544 8.544 0 0 0-4.4-7.213Zm21.742-32.69l-1.535-.922l-51.619-30.081a8.39 8.39 0 0 0-8.492 0L99.98 99.808V74.587a.716.716 0 0 1 .307-.665l52.233-30.133a48.652 48.652 0 0 1 72.236 50.391v.205ZM88.061 139.097l-21.845-12.585a.87.87 0 0 1-.41-.614V65.685a48.652 48.652 0 0 1 79.757-37.346l-1.535.87l-51.67 29.825a8.595 8.595 0 0 0-4.246 7.367l-.051 72.697Zm11.868-25.58L128.067 97.3l28.188 16.218v32.434l-28.086 16.218l-28.188-16.218l-.052-32.434Z"/></svg>